<?xml version="1.0" standalone="no"?>
<!DOCTYPE svg PUBLIC "-//W3C//DTD SVG 20010904//EN" "http://www.w3.org/TR/2001/REC-SVG-20010904/DTD/svg10.dtd">
<svg version="1.0" xmlns="http://www.w3.org/2000/svg" width="840.000000pt" height="545.000000pt"
    viewBox="0 0 840.000000 545.000000" preserveAspectRatio="xMidYMid meet">

    <g transform="translate(0.000000,545.000000) scale(0.100000,-0.100000)" fill="#000000" stroke="none">
        <path d="M4230 5044 c-548 -52 -1016 -255 -1400 -609 -389 -359 -626 -796
-722 -1330 -25 -142 -35 -477 -19 -625 109 -975 807 -1776 1752 -2009 203 -50
331 -65 554 -65 280 0 476 30 729 111 375 121 782 386 1008 657 57 68 61 105
16 139 -41 30 -68 16 -165 -84 -370 -384 -818 -603 -1367 -670 -137 -16 -428
-6 -576 20 -377 68 -714 220 -1013 458 -167 134 -368 364 -489 563 -384 630
-415 1446 -80 2104 341 670 984 1110 1737 1187 145 14 409 7 545 -16 256 -43
495 -125 710 -243 103 -57 127 -64 154 -50 54 29 60 77 16 118 -38 35 -283
157 -415 206 -126 46 -327 97 -470 119 -106 16 -413 27 -505 19z" />
        <path d="M4263 4500 c-410 -34 -812 -224 -1105 -522 -106 -109 -125 -146 -95
-192 34 -51 96 -34 158 44 19 24 72 76 119 117 441 388 1029 510 1579 327 561
-186 972 -667 1072 -1255 28 -162 23 -429 -10 -582 -107 -490 -416 -890 -856
-1107 -213 -105 -387 -151 -629 -168 -106 -8 -121 -11 -138 -32 -25 -31 -23
-66 7 -95 28 -29 67 -31 223 -15 218 23 398 77 607 180 441 219 761 604 899
1083 49 170 60 257 60 477 0 173 -3 223 -22 318 -95 474 -361 875 -752 1134
-252 167 -535 264 -843 288 -134 11 -141 10 -274 0z" />
        <path d="M6455 4417 c-45 -45 -48 -73 -42 -502 4 -319 7 -370 25 -445 45 -187
106 -299 182 -330 21 -9 33 -22 40 -49 23 -84 10 -432 -40 -1081 -29 -361 -36
-587 -21 -633 33 -100 213 -147 332 -87 83 43 89 54 89 182 0 62 -11 244 -25
404 -59 689 -71 936 -55 1087 13 127 23 154 60 162 41 9 108 71 136 126 51
102 56 151 61 604 3 231 2 444 -2 474 -6 44 -14 62 -41 89 -30 30 -39 34 -70
29 -44 -7 -63 -22 -83 -67 -13 -29 -17 -91 -21 -350 l-5 -315 -30 0 -30 0 -5
330 c-5 342 -7 360 -49 392 -9 7 -35 13 -57 13 -31 0 -48 -6 -67 -26 -43 -43
-49 -99 -41 -422 l7 -294 -28 4 -28 3 2 316 c2 341 -1 368 -50 403 -13 9 -43
16 -67 16 -36 0 -50 -6 -77 -33z m115 -396 l0 -339 31 -26 c42 -36 110 -36
144 -1 14 13 25 32 25 42 3 532 6 651 19 667 10 12 17 14 27 5 11 -9 14 -75
14 -344 l0 -333 35 -31 c38 -33 80 -40 129 -21 54 20 56 31 64 383 5 247 10
329 20 339 11 11 16 9 28 -6 12 -17 14 -90 14 -435 0 -411 -4 -482 -35 -588
-19 -64 -72 -128 -115 -137 -38 -7 -72 -43 -89 -93 -19 -55 -26 -411 -12 -622
7 -97 23 -304 37 -461 31 -356 46 -598 38 -622 -8 -27 -77 -58 -128 -58 -55 0
-123 25 -136 51 -18 33 -10 248 25 718 59 793 58 1009 -5 1073 -16 15 -35 28
-42 28 -35 0 -92 89 -122 190 -40 132 -48 233 -46 583 0 185 5 348 10 361 10
28 28 37 53 24 16 -8 17 -35 17 -347z" />
        <path d="M1537 4320 c-68 -12 -168 -61 -219 -109 -66 -60 -97 -124 -110 -228
-34 -274 54 -830 157 -993 23 -37 79 -90 95 -90 39 0 37 -373 -5 -940 -51
-701 -52 -814 -3 -853 47 -37 85 -50 154 -55 62 -4 80 -1 128 21 30 14 67 37
81 51 23 23 25 32 25 120 0 53 -15 281 -34 508 -60 721 -68 948 -36 1096 11
49 15 54 58 75 86 41 144 167 183 400 36 215 42 614 11 737 -37 144 -143 233
-312 261 -63 10 -105 10 -173 -1z m260 -104 c111 -50 147 -112 164 -283 29
-280 -23 -716 -104 -868 -26 -49 -40 -64 -79 -82 -28 -13 -53 -34 -62 -51 -58
-113 -55 -389 15 -1200 16 -188 29 -392 29 -452 l0 -110 -40 -20 c-48 -24
-147 -27 -190 -5 -21 11 -31 25 -36 52 -9 48 0 227 37 743 22 290 32 504 32
675 2 291 -2 310 -74 361 -24 17 -54 48 -67 70 -51 89 -100 295 -128 533 -20
171 -16 428 8 482 34 78 121 149 217 176 77 21 205 12 278 -21z" />
        <path d="M1607 4103 c-4 -3 -7 -17 -7 -29 0 -16 7 -25 23 -28 12 -3 34 -7 48
-10 42 -9 76 -43 108 -109 81 -167 79 -413 -5 -578 -27 -54 -76 -99 -108 -99
-31 0 -59 -23 -55 -45 6 -27 32 -39 71 -31 238 44 318 596 124 859 -32 44 -96
77 -148 77 -24 0 -48 -3 -51 -7z" />
    </g>
</svg>